<svg width="82" height="32" viewBox="0 0 82 32" fill="none" xmlns="http://www.w3.org/2000/svg">
<path d="M39.37 9.34V21H37.368V19.24C36.9427 19.8413 36.378 20.3107 35.674 20.648C34.9847 20.9707 34.2293 21.132 33.408 21.132C31.8533 21.132 30.6287 20.7067 29.734 19.856C28.8393 18.9907 28.392 17.722 28.392 16.05V9.34H30.504V15.808C30.504 16.9373 30.7753 17.7953 31.318 18.382C31.8607 18.954 32.638 19.24 33.65 19.24C34.7647 19.24 35.6447 18.9027 36.29 18.228C36.9353 17.5533 37.258 16.6 37.258 15.368V9.34H39.37ZM43.3907 9.34H45.5027V21H43.3907V9.34ZM44.4467 7.096C44.036 7.096 43.6913 6.964 43.4127 6.7C43.1487 6.436 43.0167 6.11333 43.0167 5.732C43.0167 5.35067 43.1487 5.028 43.4127 4.764C43.6913 4.48533 44.036 4.346 44.4467 4.346C44.8573 4.346 45.1947 4.478 45.4587 4.742C45.7373 4.99133 45.8767 5.30667 45.8767 5.688C45.8767 6.084 45.7373 6.42133 45.4587 6.7C45.1947 6.964 44.8573 7.096 44.4467 7.096ZM60.5352 4.676V21H58.5112V19.152C58.0419 19.7973 57.4479 20.2887 56.7292 20.626C56.0105 20.9633 55.2185 21.132 54.3532 21.132C53.2239 21.132 52.2119 20.8827 51.3172 20.384C50.4225 19.8853 49.7185 19.1887 49.2052 18.294C48.7065 17.3847 48.4572 16.3433 48.4572 15.17C48.4572 13.9967 48.7065 12.9627 49.2052 12.068C49.7185 11.1733 50.4225 10.4767 51.3172 9.978C52.2119 9.47933 53.2239 9.23 54.3532 9.23C55.1892 9.23 55.9592 9.39133 56.6632 9.714C57.3672 10.022 57.9539 10.484 58.4232 11.1V4.676H60.5352ZM54.5292 19.284C55.2625 19.284 55.9299 19.1153 56.5312 18.778C57.1325 18.426 57.6019 17.942 57.9392 17.326C58.2765 16.6953 58.4452 15.9767 58.4452 15.17C58.4452 14.3633 58.2765 13.652 57.9392 13.036C57.6019 12.4053 57.1325 11.9213 56.5312 11.584C55.9299 11.2467 55.2625 11.078 54.5292 11.078C53.7812 11.078 53.1065 11.2467 52.5052 11.584C51.9185 11.9213 51.4492 12.4053 51.0972 13.036C50.7599 13.652 50.5912 14.3633 50.5912 15.17C50.5912 15.9767 50.7599 16.6953 51.0972 17.326C51.4492 17.942 51.9185 18.426 52.5052 18.778C53.1065 19.1153 53.7812 19.284 54.5292 19.284ZM75.0693 15.236C75.0693 15.3973 75.0546 15.61 75.0253 15.874H65.5653C65.6973 16.9007 66.1446 17.7293 66.9073 18.36C67.6846 18.976 68.6453 19.284 69.7893 19.284C71.1826 19.284 72.3046 18.8147 73.1553 17.876L74.3213 19.24C73.7933 19.856 73.1333 20.3253 72.3413 20.648C71.564 20.9707 70.6913 21.132 69.7233 21.132C68.4913 21.132 67.3986 20.8827 66.4453 20.384C65.492 19.8707 64.7513 19.1593 64.2233 18.25C63.71 17.3407 63.4533 16.314 63.4533 15.17C63.4533 14.0407 63.7026 13.0213 64.2013 12.112C64.7146 11.2027 65.4113 10.4987 66.2913 10C67.186 9.48667 68.1906 9.23 69.3053 9.23C70.42 9.23 71.41 9.48667 72.2753 10C73.1553 10.4987 73.8373 11.2027 74.3213 12.112C74.82 13.0213 75.0693 14.0627 75.0693 15.236ZM69.3053 11.012C68.2933 11.012 67.4426 11.32 66.7533 11.936C66.0786 12.552 65.6826 13.3587 65.5653 14.356H73.0453C72.928 13.3733 72.5246 12.574 71.8353 11.958C71.1606 11.3273 70.3173 11.012 69.3053 11.012Z" fill="white"/>
<path d="M22 20.5H16.25M22 14H26V20.5H16.25M16.25 20.5H10.5L7.5 15L10.5 13V8L7.5 5.5H1V20.5H7.5V27H9.5V25.5H12.5V31H15V24H19V27H22V29H23.5V24H26V25.5H28.5V30H31V24H79.5M16.25 20.5V5.5H26V10M79.5 24L73 29M79.5 24L73 18.5" stroke="#FFFEFE" stroke-width="2"/>
</svg>
